<?xml version="1.0" standalone="no"?><!DOCTYPE svg PUBLIC "-//W3C//DTD SVG 1.1//EN"
        "http://www.w3.org/Graphics/SVG/1.1/DTD/svg11.dtd">
<svg t="1628744216177" class="icon" viewBox="0 0 1024 1024" version="1.1" xmlns="http://www.w3.org/2000/svg" p-id="5698"
     xmlns:xlink="http://www.w3.org/1999/xlink" width="128" height="128">
    <defs>
        <style type="text/css"></style>
    </defs>
    <path d="M512 90.125c-233.007 0-421.875 59.036-421.875 131.836v105.469c0 72.8 188.868 131.836 421.875 131.836s421.875-59.036 421.875-131.836v-105.469c0-72.8-188.868-131.836-421.875-131.836z"
          fill="#1296db" p-id="5699"></path>
    <path d="M512 538.367c-233.007 0-421.875-59.036-421.875-131.836v158.203c0 72.8 188.868 131.836 421.875 131.836s421.875-59.036 421.875-131.836v-158.203c0 72.8-188.868 131.836-421.875 131.836z"
          fill="#1296db" p-id="5700"></path>
    <path d="M512 775.672c-233.007 0-421.875-59.036-421.875-131.836v158.203c0 72.8 188.868 131.836 421.875 131.836s421.875-59.036 421.875-131.836v-158.203c0 72.8-188.868 131.836-421.875 131.836z"
          fill="#1296db" p-id="5701"></path>
</svg>