<?xml version="1.0" standalone="no"?><!DOCTYPE svg PUBLIC "-//W3C//DTD SVG 1.1//EN"
        "http://www.w3.org/Graphics/SVG/1.1/DTD/svg11.dtd">
<svg t="1628743933532" class="icon" viewBox="0 0 1024 1024" version="1.1" xmlns="http://www.w3.org/2000/svg" p-id="4602"
     xmlns:xlink="http://www.w3.org/1999/xlink" width="128" height="128">
    <defs>
        <style type="text/css"></style>
    </defs>
    <path d="M860.1 365.6c0-8.5-5.5-12.6-11-18.1L590.3 115.1c-3.6-2.9-5.8-6.1-15.4-6.1H204.3c-21.2 0-38.5 17.2-38.5 38.5v731.7c0 21.2 17.2 38.5 38.5 38.5h617.5c21.2 0 38.5-17.2 38.5-38.5l-0.2-513.6z m-528.2-33.7h180.4c18.3 0 33.2 14.9 33.2 33.2 0 18.3-14.9 33.2-33.2 33.2H331.9c-18.3 0-33.2-14.9-33.2-33.2 0-18.4 14.8-33.2 33.2-33.2z m362.2 420.9H331.9c-18.3 0-33.2-14.9-33.2-33.2 0-18.3 14.9-33.2 33.2-33.2h362.3c18.3 0 33.2 14.9 33.2 33.2-0.1 18.4-14.9 33.2-33.3 33.2z m0-177.3H331.9c-18.3 0-33.2-14.9-33.2-33.2s14.9-33.2 33.2-33.2h362.3c18.3 0 33.2 14.9 33.2 33.2s-14.9 33.2-33.3 33.2z"
          fill="#3259CE" p-id="4603"></path>
</svg>