<?xml version="1.0" standalone="no"?><!DOCTYPE svg PUBLIC "-//W3C//DTD SVG 1.1//EN"
        "http://www.w3.org/Graphics/SVG/1.1/DTD/svg11.dtd">
<svg t="1628743746121" class="icon" viewBox="0 0 1024 1024" version="1.1" xmlns="http://www.w3.org/2000/svg" p-id="2151"
     xmlns:xlink="http://www.w3.org/1999/xlink" width="128" height="128">
    <defs>
        <style type="text/css"></style>
    </defs>
    <path d="M864 576v64a64 64 0 0 1-64 64H224a64 64 0 0 1-64-64v-64H128a32 32 0 0 1-32-32v-64a32 32 0 0 1 32-32h32v-96a64 64 0 0 1 64-64h576a64 64 0 0 1 64 64v96h32a32 32 0 0 1 32 32v64a32 32 0 0 1-32 32h-32zM256 384v224h512v-224H256z m208-192A48 48 0 0 1 512 144h32a48 48 0 1 1 0 96h-32A48 48 0 0 1 464 192z m-64 256a48 48 0 1 1 0 96 48 48 0 0 1 0-96z m224 0a48 48 0 1 1 0 96 48 48 0 0 1 0-96z"
          fill="#FFA235" p-id="2152"></path>
    <path d="M368 736h288a48 48 0 0 1 48 48v96a48 48 0 0 1-48 48h-288a48 48 0 0 1-48-48v-96a48 48 0 0 1 48-48z"
          fill="#FFA235" opacity=".4" p-id="2153"></path>
</svg>