<?xml version="1.0" standalone="no"?><!DOCTYPE svg PUBLIC "-//W3C//DTD SVG 1.1//EN" "http://www.w3.org/Graphics/SVG/1.1/DTD/svg11.dtd"><svg t="1628214562413" class="icon" viewBox="0 0 1024 1024" version="1.1" xmlns="http://www.w3.org/2000/svg" p-id="1351" width="128" height="128" xmlns:xlink="http://www.w3.org/1999/xlink"><defs><style type="text/css"></style></defs><path d="M504.96 962.56h-17.92c-20.48 0-38.4-14.72-41.6-35.2l-34.56-109.44c-1.28-3.84 1.28-8.32 5.12-9.6 3.84-1.28 8.32 1.28 9.6 5.12l34.56 110.08v1.28c1.92 13.44 13.44 23.04 26.88 23.04h17.92c13.44 0 24.96-9.6 26.88-23.04v-0.64l28.8-110.08c1.28-3.84 5.12-6.4 8.96-5.12 3.84 1.28 6.4 5.12 5.12 8.96l-28.8 109.44c-2.56 20.48-19.84 35.2-40.96 35.2z" fill="#707070" p-id="1352"></path><path d="M325.12 158.72c-3.2 0-5.76-1.92-7.04-5.12-1.28-3.84 0.64-8.32 4.48-9.6 23.68-8.96 60.16-16.64 100.48-21.12 3.84-0.64 7.68 2.56 8.32 6.4 0.64 3.84-2.56 7.68-6.4 8.32-39.04 4.48-74.88 12.16-97.28 20.48-0.64 0-1.28 0.64-2.56 0.64zM668.16 158.72c-0.64 0-1.92 0-2.56-0.64-25.6-9.6-65.28-17.28-108.8-21.76-3.84-0.64-7.04-3.84-7.04-8.32 0.64-3.84 3.84-7.04 8.32-7.04 44.8 4.48 85.76 12.8 112.64 22.4 3.84 1.28 5.76 5.76 4.48 9.6-0.64 3.84-3.84 5.76-7.04 5.76zM276.48 281.6c-1.28 0-3.2-0.64-4.48-1.28-3.2-2.56-3.84-7.04-1.28-10.88 8.32-10.88 21.12-16 35.2-21.76 6.4-2.56 13.44-5.76 19.84-8.96 5.12-3.2 10.88-7.04 16.64-11.52 10.24-7.68 21.12-16.64 35.2-20.48 12.16-3.84 25.6-4.48 38.4-5.12 7.68-0.64 15.36-0.64 22.4-1.92 7.04-0.64 14.72-3.84 23.04-6.4 11.52-3.84 23.04-8.32 35.84-8.32 12.8 0 24.32 3.84 35.2 8.32 7.68 2.56 15.36 5.76 22.4 6.4 7.04 0.64 14.72 1.28 22.4 1.92 12.8 0.64 26.24 1.28 37.76 5.12 13.44 3.84 24.96 12.8 34.56 19.84 5.76 4.48 11.52 8.96 16.64 11.52 6.4 3.2 13.44 6.4 19.84 8.96 13.44 5.12 26.24 10.24 34.56 20.48 2.56 3.2 1.92 8.32-1.28 10.88-3.2 2.56-8.32 1.92-10.88-1.28-5.76-7.04-16.64-11.52-28.16-16-7.04-2.56-14.72-5.76-21.76-9.6-6.4-3.2-12.8-8.32-19.2-12.8-8.96-7.04-18.56-14.08-29.44-17.28-10.24-3.2-21.76-3.84-34.56-4.48-7.68-0.64-15.36-0.64-23.04-1.92-8.96-1.28-17.28-4.48-25.6-7.04-10.24-3.84-20.48-7.04-30.08-7.04-10.24 0-20.48 3.84-31.36 7.04-8.32 3.2-17.28 5.76-26.24 7.04-7.68 1.28-16 1.28-23.04 1.92-12.8 0.64-24.96 1.28-35.2 4.48-11.52 3.2-21.12 10.88-30.08 17.92-5.76 4.48-12.16 9.6-18.56 13.44-7.04 3.84-14.08 7.04-21.12 9.6-12.16 5.12-23.04 9.6-28.8 17.28-1.28 0.64-3.84 1.92-5.76 1.92zM117.12 412.8c-1.28 0-3.2-0.64-4.48-1.28-3.2-2.56-3.84-7.04-1.28-10.88 8.32-10.88 21.12-16 35.2-21.76 6.4-2.56 13.44-5.76 19.84-8.96 5.12-3.2 10.88-7.04 16.64-11.52 10.24-7.68 21.12-16.64 35.2-20.48 11.52-3.2 23.04-2.56 35.2-1.92 8.32 0.64 17.28 1.28 25.6 0 7.04-1.28 14.72-3.84 23.04-6.4 11.52-3.84 23.04-8.32 35.84-8.32 12.8 0 24.32 3.84 35.2 8.32 7.68 2.56 15.36 5.76 22.4 6.4 8.32 1.28 17.28 0.64 25.6 0 11.52-0.64 23.68-1.92 34.56 1.28 13.44 3.84 24.96 12.8 34.56 19.84 1.92 1.92 4.48 3.2 6.4 5.12 1.28-1.28 3.2-2.56 4.48-3.84 10.24-7.68 21.12-16.64 35.2-21.12 11.52-3.2 23.04-2.56 35.2-1.92 8.96 0.64 17.28 1.28 25.6 0 7.04-1.28 14.72-3.84 23.04-6.4 11.52-3.84 23.04-8.32 35.84-8.32 12.8 0 24.32 3.84 35.2 8.32 7.68 2.56 15.36 5.76 22.4 6.4 8.32 1.28 17.28 0.64 25.6 0 11.52-0.64 23.68-1.92 34.56 1.28 13.44 3.84 24.96 12.8 34.56 19.84 5.76 4.48 11.52 8.96 16.64 11.52 6.4 3.2 13.44 6.4 19.84 8.96 13.44 5.12 26.24 10.24 34.56 20.48 2.56 3.2 1.92 8.32-1.28 10.88-3.2 2.56-8.32 1.92-10.88-1.28-5.76-7.04-16.64-10.88-28.16-16-7.04-2.56-14.72-5.76-21.76-9.6-6.4-3.2-12.8-8.32-19.2-12.8-8.96-7.04-18.56-14.08-29.44-17.28-8.32-2.56-18.56-1.92-29.44-0.64-9.6 0.64-19.2 1.28-28.8 0-8.96-1.28-17.28-4.48-25.6-7.04-10.24-3.84-20.48-7.04-30.08-7.04-10.24 0-20.48 3.84-30.72 7.04-8.32 3.2-17.28 5.76-26.24 7.04-9.6 1.28-19.2 0.64-28.8 0-10.88-0.64-21.12-1.28-30.08 1.28-11.52 3.2-21.12 10.88-30.08 17.92-3.2 2.56-6.4 5.12-9.6 7.04-2.56 1.92-5.76 1.92-8.96 0-3.84-2.56-7.68-5.76-11.52-8.32-8.96-7.04-18.56-14.08-29.44-17.28-8.32-2.56-18.56-1.92-29.44-0.64-8.96 0.64-19.2 1.28-28.8 0-8.96-1.28-17.28-4.48-25.6-7.04-10.24-3.84-20.48-7.04-30.08-7.04-10.24 0-20.48 3.84-30.72 7.04-8.32 3.2-17.28 5.76-26.24 7.04-9.6 1.28-19.2 0.64-28.8 0-10.88-0.64-21.12-1.28-30.08 1.28-11.52 3.2-21.12 10.88-30.08 17.92-3.84 4.48-10.24 9.6-16.64 12.8-7.04 3.84-14.08 7.04-21.12 9.6-12.16 5.12-23.04 9.6-28.8 17.28-1.28 1.92-3.84 3.2-5.76 3.2z" fill="#707070" p-id="1353"></path><path d="M188.16 215.04c-0.64 0-1.92 0-2.56-0.64-3.84-1.28-5.76-5.76-4.48-9.6 7.68-18.56 29.44-28.16 50.56-37.12 2.56-1.28 5.12-2.56 8.32-3.84 4.48-1.92 8.96-4.48 14.08-7.04 14.72-7.68 31.36-16.64 50.56-16.64 19.84 0 36.48 8.96 51.2 16.64 5.12 2.56 9.6 5.12 14.08 7.04 5.76 2.56 11.52 4.48 17.28 7.04 17.92 6.4 34.56 12.16 40.96 28.8 1.28 3.84-0.64 8.32-4.48 9.6-3.84 1.28-8.32-0.64-9.6-4.48-3.84-10.24-16.64-14.72-32-20.48-5.76-1.92-12.16-4.48-18.56-7.04l-15.36-7.68c-14.08-7.68-28.16-14.72-44.16-14.72-15.36 0-30.08 7.68-43.52 14.72l-15.36 7.68c-2.56 1.28-5.76 2.56-8.32 3.84-19.2 8.32-37.12 16-42.24 29.44-0.64 2.56-3.84 4.48-6.4 4.48zM805.76 215.04c-3.2 0-5.76-1.92-7.04-4.48-5.12-13.44-23.04-21.12-42.24-29.44-2.56-1.28-5.12-2.56-8.32-3.84l-15.36-7.68c-14.08-7.68-28.16-14.72-44.16-14.72s-30.08 7.68-44.16 15.36l-15.36 7.68c-6.4 2.56-12.8 5.12-18.56 7.04-15.36 5.76-28.16 10.24-32 20.48-1.28 3.84-5.76 5.76-9.6 4.48-3.84-1.28-5.76-5.76-4.48-9.6 6.4-16.64 23.04-22.4 40.96-28.8 5.76-1.92 11.52-4.48 17.28-7.04 4.48-1.92 8.96-4.48 14.08-7.04 14.72-7.68 31.36-16.64 51.2-16.64 19.84 0 36.48 8.96 51.2 16.64 5.12 2.56 9.6 5.12 14.08 7.04 2.56 1.28 5.12 2.56 7.68 3.2 21.12 8.96 42.88 18.56 50.56 37.76 1.28 3.84-0.64 8.32-4.48 9.6h-1.28z" fill="#707070" p-id="1354"></path><path d="M602.88 183.68c-3.2 0-5.76-1.92-7.04-4.48-6.4-16.64-22.4-27.52-37.12-38.4-3.2-2.56-6.4-4.48-9.6-7.04-17.28-12.8-35.2-14.08-56.96-14.08-22.4 0-39.68 0.64-56.32 12.8-3.2 2.56-7.04 5.12-10.88 7.68-14.72 10.24-30.08 20.48-36.48 35.84-1.92 3.84-6.4 5.76-10.24 3.84-3.84-1.92-5.76-6.4-3.84-10.24 8.32-19.84 26.24-31.36 42.24-42.24 3.2-2.56 7.04-4.48 10.24-7.04 20.48-14.72 40.32-16 64.64-16 23.68 0 45.44 1.28 65.92 16.64 3.2 2.56 6.4 4.48 9.6 7.04 16 11.52 34.56 24.32 42.88 44.8 1.28 3.84-0.64 8.32-4.48 9.6-0.64 1.28-1.28 1.28-2.56 1.28zM126.72 289.28c-1.28 0-1.92 0-3.2-0.64-3.84-1.92-5.76-5.76-3.84-9.6 21.76-51.84 62.72-83.84 108.16-83.84 33.92 0 65.92 17.92 89.6 50.56 2.56 3.2 1.92 8.32-1.92 10.88-3.2 2.56-8.32 1.92-10.88-1.92-20.48-28.16-48-44.16-76.8-44.16-39.04 0-74.88 28.8-94.08 74.24-1.28 2.56-4.48 4.48-7.04 4.48zM864.64 282.88c-2.56 0-5.76-1.92-7.04-4.48-19.84-42.88-54.4-68.48-91.52-68.48-29.44 0-56.32 15.36-76.8 44.16-2.56 3.2-7.04 3.84-10.88 1.92-3.2-2.56-3.84-7.04-1.92-10.88 23.68-32.64 55.04-50.56 89.6-50.56 42.88 0 82.56 28.8 104.96 76.8 1.92 3.84 0 8.32-3.84 10.24-0.64 0.64-1.92 1.28-2.56 1.28zM66.56 429.44c-3.2 0-6.4-2.56-7.04-5.76-7.04-29.44-9.6-48-9.6-48.64-0.64-3.84 2.56-7.68 6.4-8.32 3.84-0.64 7.68 2.56 8.32 6.4 0 0 2.56 18.56 9.6 47.36 1.28 3.84-1.28 8.32-5.76 8.96h-1.92z" fill="#707070" p-id="1355"></path><path d="M928 428.16h-1.92c-3.84-1.28-6.4-5.12-5.76-8.96 6.4-28.16 8.96-45.44 8.96-46.08 6.4-33.92-14.72-53.76-36.48-69.12-23.04-16.64-48.64-33.28-78.72-35.84-21.12-1.92-42.88 3.84-64.64 10.24-8.32 2.56-16 4.48-23.04 5.76-42.24 9.6-60.8 19.84-62.72 35.2-0.64 3.84-4.48 7.04-8.32 6.4-3.84-0.64-7.04-4.48-6.4-8.32 3.84-28.16 37.76-39.68 74.24-48 7.04-1.92 14.72-3.84 22.4-5.76 21.76-5.76 46.08-12.8 69.76-10.24 33.92 3.2 62.08 21.76 85.76 38.4 23.68 17.28 50.56 42.24 42.88 83.84 0 0.64-2.56 18.56-8.96 46.72-0.64 3.2-3.84 5.76-7.04 5.76z" fill="#707070" p-id="1356"></path><path d="M656 325.12c-4.48 0-7.68-3.2-7.68-7.68 0-10.88-37.76-16-64.64-19.84-10.88-1.28-21.76-4.48-33.28-7.04-17.28-4.48-35.84-8.96-53.76-8.96-17.92 0-36.48 4.48-53.76 8.96-11.52 3.2-22.4 5.76-33.28 7.04-28.8 3.84-64.64 8.96-64.64 19.84 0 4.48-3.2 7.68-7.68 7.68s-7.68-3.2-7.68-7.68c0-23.68 34.56-28.8 78.08-34.56 9.6-1.28 20.48-3.84 31.36-7.04 18.56-4.48 37.12-9.6 57.6-9.6 19.84 0 39.04 5.12 57.6 9.6 10.88 2.56 21.76 5.76 31.36 7.04 43.52 5.76 78.08 10.88 78.08 34.56 0 4.48-3.2 7.68-7.68 7.68z" fill="#707070" p-id="1357"></path><path d="M56.96 381.44c-3.84 0-6.4-2.56-7.68-6.4-8.32-40.96 19.84-64.64 44.8-80.64l1.92-1.28c22.4-14.08 49.92-32 83.2-35.2 23.04-1.92 44.8 3.84 66.56 8.96 8.32 1.92 16.64 4.48 24.32 5.76 42.88 8.32 71.68 18.56 74.88 44.16 0.64 3.84-2.56 7.68-6.4 8.32-3.84 0.64-7.68-2.56-8.32-6.4-1.92-13.44-20.48-22.4-62.72-30.72-8.32-1.28-16.64-3.84-24.96-5.76-20.48-5.12-40.96-10.88-61.44-8.96-29.44 2.56-54.4 18.56-76.8 33.28l-1.92 0.64c-32 20.48-43.52 39.68-38.4 65.28 0.64 3.84-1.92 8.32-5.76 8.96h-1.28zM579.84 823.04c-9.6 0-20.48-0.64-32-0.64-14.72-0.64-32-1.28-50.56-1.28-21.76 0-40.32 0.64-56.96 1.28-24.32 0.64-42.24 1.28-53.12-0.64-28.16-5.76-51.84-18.56-74.88-31.36-8.96-5.12-17.28-9.6-25.6-13.44-9.6-4.48-19.2-8.32-28.16-12.8-25.6-10.88-49.92-21.76-69.76-38.4-21.12-17.92-35.2-40.96-49.28-62.72-5.76-8.96-10.88-17.92-16.64-25.6-7.68-10.24-15.36-20.48-23.04-30.08-16-20.48-31.36-39.68-40.32-60.16-10.88-24.96-18.56-51.2-24.32-81.28-3.2-19.84 5.76-39.04 22.4-48 21.12-12.16 39.68-18.56 58.24-19.84 23.04-1.92 44.8 3.84 66.56 8.96 8.32 1.92 16.64 4.48 24.32 5.76 42.88 8.32 71.68 18.56 74.88 44.16 0.64 3.84-2.56 7.68-6.4 8.32-3.84 0.64-7.68-2.56-8.32-6.4-1.92-13.44-20.48-22.4-62.72-30.72-8.32-1.28-16.64-3.84-24.96-5.76-20.48-5.12-40.96-10.88-61.44-8.96-16.64 1.28-33.28 7.04-52.48 17.92-10.88 6.4-17.28 18.56-14.72 31.36 3.2 18.56 9.6 46.72 23.04 78.08 8.32 18.56 22.4 37.12 37.76 56.96 7.68 9.6 15.36 19.84 23.04 30.72 5.76 8.32 11.52 17.28 17.28 26.24 12.8 21.12 26.88 42.88 46.08 59.52 17.92 15.36 40.96 25.6 65.92 35.84 9.6 3.84 19.2 8.32 28.8 12.8 8.96 4.48 17.28 8.96 26.24 14.08 21.76 12.16 44.8 24.32 71.04 29.44 9.6 1.92 26.24 1.28 49.92 0.64 15.36-0.64 35.2-1.28 56.96-1.28 19.2 0 36.48 0.64 51.2 1.28 23.68 1.28 42.88 1.92 55.68-0.64 26.24-5.12 48.64-17.92 71.04-29.44 8.96-5.12 17.92-9.6 26.24-14.08 9.6-4.48 19.2-8.96 28.8-12.8 24.32-10.88 48-20.48 65.92-35.84 19.2-16.64 32.64-38.4 46.08-59.52 5.76-8.96 11.52-17.92 17.28-26.24 7.68-10.88 15.36-21.12 23.04-30.72 15.36-19.84 30.08-37.76 37.76-56.96 14.08-32 19.84-60.8 23.68-79.36 1.92-12.16-3.2-24.32-13.44-30.08-20.48-12.8-38.4-19.2-56.32-21.12-21.12-1.92-42.88 3.84-64.64 10.24-8.32 1.92-16 4.48-23.04 5.76-40.32 8.96-59.52 19.2-62.08 33.28-0.64 3.84-5.12 6.4-8.96 5.76-3.84-0.64-6.4-5.12-5.76-8.96 5.76-26.24 39.04-36.48 73.6-44.8 7.04-1.92 14.72-3.84 22.4-5.76 21.76-5.76 46.08-12.8 69.76-10.24 20.48 1.92 40.32 8.96 63.36 23.04 15.36 9.6 23.68 28.16 20.48 46.08-3.84 19.2-10.24 49.28-24.32 82.56-8.96 20.48-24.32 39.68-40.32 60.16-7.68 9.6-15.36 19.84-23.04 30.08-5.76 8.32-10.88 16.64-16.64 25.6-13.44 21.76-27.52 44.8-48.64 62.72-19.84 16.64-44.16 27.52-69.76 38.4-8.96 3.84-18.56 8.32-28.16 12.8-8.32 3.84-16.64 8.32-25.6 13.44-23.04 12.8-46.72 25.6-74.88 31.36-8.32 0.64-17.28 1.28-27.52 1.28z" fill="#707070" p-id="1358"></path><path d="M348.16 807.04c-1.92 0-3.84-0.64-5.12-1.92l-1.92-1.92c-19.2-18.56-42.88-42.24-56.32-69.12-7.68-16-11.52-33.92-14.72-51.2-1.92-11.52-4.48-23.04-7.68-33.28-3.84-12.8-9.6-24.96-15.36-36.48-7.04-14.72-14.08-29.44-17.28-43.52-6.4-30.08-7.04-40.32-7.04-52.48v-3.2c-0.64-25.6 14.72-48 38.4-56.32l3.2-1.28c8.32-2.56 16.64-5.76 24.32-8.96 7.04-3.2 13.44-7.68 20.48-12.16 12.16-7.68 25.6-16.64 42.24-20.48 13.44-3.2 28.16-2.56 42.24-1.92 10.88 0.64 21.76 1.28 32.64 0 9.6-1.28 18.56-3.84 28.8-6.4 14.08-3.84 28.16-7.68 43.52-7.68 14.72 0 28.8 3.84 42.24 7.68 10.24 2.56 19.2 5.76 28.8 6.4 10.24 1.28 21.12 0.64 32 0 14.08-0.64 28.16-1.92 40.96 1.28 16.64 3.84 30.08 12.16 41.6 19.84 7.04 4.48 14.08 8.96 21.12 11.52 8.32 3.2 16.64 6.4 24.96 8.96 16 5.12 28.8 16.64 35.2 32s6.4 32.64-1.28 47.36c-3.2 6.4-7.04 15.36-10.24 30.72-1.92 10.24-2.56 21.12-3.84 33.28-1.28 17.28-1.92 35.2-7.68 53.12-5.76 17.28-15.36 33.28-24.96 48.64-6.4 9.6-12.16 18.56-16.64 28.16-3.84 8.32-7.68 17.28-11.52 26.24-6.4 15.36-12.16 29.44-20.48 41.6-2.56 3.2-7.04 4.48-10.24 1.92-3.2-2.56-4.48-7.04-1.92-10.24 7.68-10.88 12.8-24.32 18.56-39.04 3.84-8.96 7.04-17.92 11.52-26.88 5.12-10.24 11.52-19.84 17.28-29.44 8.96-14.72 18.56-29.44 23.68-45.44 5.12-16 6.4-33.28 7.04-49.92 0.64-12.8 1.28-24.32 3.84-35.2 3.84-16.64 7.68-26.88 11.52-33.92 5.12-10.88 5.76-23.68 0.64-35.2-5.12-11.52-14.08-19.84-26.24-23.68-8.32-2.56-17.28-5.76-26.24-9.6-7.68-3.2-15.36-8.32-23.04-12.8-11.52-7.04-23.04-14.72-37.12-17.92-10.88-2.56-23.68-1.92-37.12-1.28-11.52 0.64-23.04 1.28-34.56 0-10.24-1.28-21.12-3.84-31.36-7.04-12.8-3.84-25.6-7.04-38.4-7.04-13.44 0-26.24 3.84-39.04 7.68-10.24 3.2-21.12 5.76-31.36 7.04-11.52 1.28-23.68 0.64-34.56 0-13.44-0.64-26.88-1.28-37.76 1.28-14.08 3.2-26.24 10.88-37.76 18.56-7.68 5.12-14.72 9.6-22.4 12.8-8.32 3.84-17.28 7.04-25.6 9.6l-3.2 1.28c-17.28 5.76-28.8 22.4-28.16 41.6v3.2c0.64 12.16 0.64 21.12 7.04 49.92 2.56 12.8 8.96 26.24 16 40.32 5.76 12.16 12.16 24.96 16 38.4 3.84 11.52 5.76 23.68 8.32 35.2 3.2 17.28 6.4 33.28 13.44 47.36 12.8 24.96 35.2 47.36 53.76 65.28l1.92 1.92c3.2 3.2 3.2 7.68 0 10.88-1.28 1.28-3.2 1.92-5.12 1.92z" fill="#707070" p-id="1359"></path></svg>